<?xml version="1.0" encoding="utf-8"?>
<!-- Generator: Adobe Illustrator 27.0.0, SVG Export Plug-In . SVG Version: 6.00 Build 0)  -->
<svg version="1.1" id="Layer_1" xmlns="http://www.w3.org/2000/svg" xmlns:xlink="http://www.w3.org/1999/xlink" x="0px" y="0px"
	 viewBox="0 0 512 512" style="enable-background:new 0 0 512 512;" xml:space="preserve">
<style type="text/css">
	.st0{fill:#3EB489;}
	.st1{fill:#FF7F50;}
</style>
<g>
	<g>
		<path class="st0" d="M0,34.9L0,34.9c0,49.6,25.2,95.7,66.6,122.5l157.1,102.4v-79.6L0,34.9z"/>
		<polygon class="st0" points="0,143.6 0,223.5 0,253 0,332.2 78.4,383.8 222.9,477.1 222.9,398 78.4,304.2 78.4,274.7 222.9,368 
			222.9,289.3 78.4,195.5 		"/>
	</g>
	<polygon class="st1" points="252.1,180.6 252.1,259.7 396.2,166.4 396.2,195.9 252.1,289.7 252.1,369.2 396.2,275.1 475.4,223.5 
		475.4,144.3 475.4,114.8 475.4,75 475.4,35.2 	"/>
	<path class="st1" d="M468.7,297.6c-33.1-3.9-67,3.9-95.7,22.1l-26,16.5l-94.9,62.2v39v39.8l131.2-85.1L512,309.4
		C498.2,303.5,484,299.5,468.7,297.6z"/>
</g>
</svg>
